<?xml version="1.0" encoding="utf-8"?>

<svg xmlns="http://www.w3.org/2000/svg" xmlns:xlink="http://www.w3.org/1999/xlink" 
  height="512" width="512" viewBox="0 0 512 512">

  <image href="https://s0.gifyu.com/images/hello_kitty_Hello_Kitty_Head_ClipArt_in_PNG_File.png" height="512" width="512" />

  <rect width="512" height="512" stroke="red" fill="rgba(255,255,255,0.95)" opacity="0.95" ></rect>




  <!-- 臉 -->
  <path d="M90 190 Q49 260 67 320 Q91 390 170 410 Q260 430 350 411 Q420 396 442 325 Q455 260 430 190 Q440 120 420 95 Q400 80 340 125 Q260 109 180 125 Q110 95 95 105 Q66 120 85 195" stroke="black" fill="white" stroke-width="11"/>
  <!-- 左鬍鬚 -->
  <path d="M15 290 Q64 285 96 290" stroke="black" stroke-width="6" fill="none"/> 
  <path d="M35 340 Q65 326 95 330" stroke="black" stroke-width="7" fill="none"/> 
  <path d="M50 390 Q90 360 120 360" stroke="black" stroke-width="8" fill="none"/> 
  <!-- 右鬍鬚  -->
  <path d="M419 285 Q448 275 500 280" stroke="black" stroke-width="6" fill="none"/> 
  <path d="M425 320 Q465 318 485 330" stroke="black" stroke-width="7" fill="none"/> 
  <path d="M408 357 Q448 365 480 382" stroke="black" stroke-width="8" fill="none"/> 
  <!-- 眼睛+鼻子 -->
  <ellipse stroke="black" fill="black"  stroke-width="3" cx="155" cy="308" rx="13" ry="17"/>
  <ellipse stroke="black" fill="black"  stroke-width="3" cx="355" cy="308" rx="13" ry="17"/>
  <ellipse stroke="black" fill="#ffff00"  stroke-width="4" cx="257" cy="340" rx="19" ry="13"/>
  <!-- 蝴蝶結  -->
  <path d="M300 90 Q350 70 360 180 Q380 240 400 244 C420 250 463 235 455 170 Q446 130 390 160 L320 200 Q260 215 256 175 Q265 115 302 89" stroke="black" stroke-width="11" fill="#e72235"/> 
  <ellipse stroke="black" fill="#da70d6"  stroke-width="11" cx="322" cy="159" rx="20" ry="20"/>
  <ellipse stroke="black" fill="#da70d6"  stroke-width="11" cx="400" cy="195" rx="16" ry="16"/>
  <ellipse stroke="black" fill="#e72235"  stroke-width="11" cx="360" cy="180" rx="35" ry="35"/>
</svg>


 
