<?xml version="1.0" encoding="UTF-8" standalone="no"?>
<!-- Generator: Adobe Illustrator 24.0.1, SVG Export Plug-In . SVG Version: 6.00 Build 0)  -->

<svg
   version="1.1"
   id="Layer_1"
   x="0px"
   y="0px"
   width="1200px"
   height="1200px"
   viewBox="0 0 1200 1200"
   style="enable-background:new 0 0 1200 1200;"
   xml:space="preserve"
   sodipodi:docname="110c51521.svg"
   inkscape:version="1.2.1 (9c6d41e4, 2022-07-14)"
   xmlns:inkscape="http://www.inkscape.org/namespaces/inkscape"
   xmlns:sodipodi="http://sodipodi.sourceforge.net/DTD/sodipodi-0.dtd"
   xmlns="http://www.w3.org/2000/svg"
   xmlns:svg="http://www.w3.org/2000/svg"><defs
   id="defs274" /><sodipodi:namedview
   id="namedview272"
   pagecolor="#ffffff"
   bordercolor="#000000"
   borderopacity="0.25"
   inkscape:showpageshadow="2"
   inkscape:pageopacity="0.0"
   inkscape:pagecheckerboard="0"
   inkscape:deskcolor="#d1d1d1"
   showgrid="false"
   inkscape:zoom="0.43339822"
   inkscape:cx="919.47771"
   inkscape:cy="592.98814"
   inkscape:window-width="1349"
   inkscape:window-height="712"
   inkscape:window-x="0"
   inkscape:window-y="25"
   inkscape:window-maximized="0"
   inkscape:current-layer="Layer_1" />
<g
   id="skeleton_1_"
   transform="translate(-27.688162,69.220409)">
	<polygon
   style="fill:none;stroke:#000000;stroke-miterlimit:10"
   points="685.5,564.5 731.7,349.5 518.8,349.5 569.1,565.3 "
   id="polygon155" />
	<polyline
   style="fill:none;stroke:#000000;stroke-miterlimit:10"
   points="517.8,349.5 415.1,349.5 251.8,355.8  "
   id="polyline157" />
	<polyline
   style="fill:none;stroke:#000000;stroke-miterlimit:10"
   points="733.2,349.1 836.4,349.1 999.7,355.5  "
   id="polyline159" />
	<polyline
   style="fill:none;stroke:#000000;stroke-miterlimit:10"
   points="569.1,565.3 575.5,725.5 575.5,933.5  "
   id="polyline161" />
	<polyline
   style="fill:none;stroke:#000000;stroke-miterlimit:10"
   points="685.5,564.5 685.5,725.5 685.5,933.5  "
   id="polyline163" />
	<polyline
   style="fill:none;stroke:#000000;stroke-miterlimit:10"
   points="624.5,170 604.7,172.5 592.2,182 583.6,196.1    581.1,205.4 580.3,217.1 580.3,226.6 581.1,248.3 587.9,268.3 599.5,280.8 609.5,287.5 624.5,290.7 639.3,287.9 649.3,281.2    660.9,268.6 667.7,248.6 668.5,227 668.5,217.4 667.7,205.7 665.2,196.5 657,182 644.4,172.5 624.5,170  "
   id="polyline165" />
	<polyline
   style="fill:none;stroke:#000000;stroke-miterlimit:10"
   points="588.5,206.9 592.5,203.2 598.7,202.2 606,202.2    615.8,206.2  "
   id="polyline167" />
	<polygon
   style="fill:none;stroke:#000000;stroke-miterlimit:10"
   points="606.2,211.4 611.4,215.6 606.2,216.6 599.9,217.4 594.7,215.1 599.9,211.4 "
   id="polygon169" />
	<polyline
   style="fill:none;stroke:#000000;stroke-miterlimit:10"
   points="613,233.2 618.2,233.2 623.7,234 623.7,228.7    623.7,221.6 623.7,216.1 623.7,210.3  "
   id="polyline171" />
	<polyline
   style="fill:none;stroke:#000000;stroke-miterlimit:10"
   points="660,206.5 656,203.6 649.7,202.1 642.4,202.5    632.4,205.7  "
   id="polyline173" />
	<polygon
   style="fill:none;stroke:#000000;stroke-miterlimit:10"
   points="642.5,211.4 637.4,215.6 642.5,216.6 648.8,217.4 654.1,215.1 648.8,211.4 "
   id="polygon175" />
	<polyline
   style="fill:none;stroke:#000000;stroke-miterlimit:10"
   points="634.1,233.2 629.1,233.2 623.7,234  "
   id="polyline177" />
	<polygon
   style="fill:none;stroke:#000000;stroke-miterlimit:10"
   points="620.4,250.8 624.5,251.7 628.7,250.8 635.1,251.9 642,255.3 635.6,261.6 628.5,264.4 624.5,264.9 620.4,264.4 613.4,261.6 607,255.3 613.9,251.9 "
   id="polygon179" />
	<polyline
   style="fill:none;stroke:#000000;stroke-miterlimit:10"
   points="607,255.3 610.6,255.6 620.6,254.8 624.5,255.3    628.5,254.8 638.4,255.6 642,255.3  "
   id="polyline181" />
	<polyline
   style="fill:none;stroke:#000000;stroke-miterlimit:10"
   points="607,255.3 610.6,255.6 620.6,257.7 624.5,258.5    628.5,257.7 638.4,255.6 642,255.3  "
   id="polyline183" />
	<circle
   id="rightShoulder"
   cx="518.90002"
   cy="349.20001"
   r="8.1999998" />
	<circle
   id="rightElbow"
   cx="415.39999"
   cy="349.29999"
   r="8.1999998" />
	<circle
   id="rightWrist"
   cx="252"
   cy="355.70001"
   r="8.1999998" />
	<circle
   id="rightHip"
   cx="569.20001"
   cy="565"
   r="8.1999998" />
	<circle
   id="rightKnee"
   cx="575.59998"
   cy="725.20001"
   r="8.1999998" />
	<circle
   id="rightAnkle"
   cx="575.59998"
   cy="933.20001"
   r="8.1999998" />
	<circle
   id="leftElbow"
   cx="836.20001"
   cy="348.89999"
   r="8.1999998" />
	<circle
   id="leftWrist"
   cx="999.59998"
   cy="355.20001"
   r="8.1999998" />
	<circle
   id="leftHip"
   cx="685.59998"
   cy="564.20001"
   r="8.1999998" />
	<circle
   id="leftKnee"
   cx="685.59998"
   cy="725.20001"
   r="8.1999998" />
	<circle
   id="leftAnkle"
   cx="685.59998"
   cy="933.20001"
   r="8.1999998" />
	<circle
   id="rightEye0"
   cx="594.70001"
   cy="215.10001"
   r="0.80000001" />
	<circle
   id="rightBrow1"
   cx="592.5"
   cy="203.2"
   r="0.80000001" />
	<circle
   id="rightBrow4"
   cx="615.79999"
   cy="206.2"
   r="0.80000001" />
	<circle
   id="nose1"
   cx="623.70001"
   cy="216.10001"
   r="0.80000001" />
	<circle
   id="rightBrow3"
   cx="606"
   cy="202.2"
   r="0.80000001" />
	<circle
   id="rightEye1"
   cx="599.90002"
   cy="211.39999"
   r="0.80000001" />
	<circle
   id="rightBrow0"
   cx="588.5"
   cy="206.89999"
   r="0.80000001" />
	<circle
   id="rightBrow2"
   cx="598.70001"
   cy="202.2"
   r="0.80000001" />
	<circle
   id="rightEye5"
   cx="599.90002"
   cy="217.39999"
   r="0.80000001" />
	<circle
   id="rightEye2"
   cx="606.20001"
   cy="211.39999"
   r="0.80000001" />
	<circle
   id="rightEye3"
   cx="611.40002"
   cy="215.60001"
   r="0.80000001" />
	<circle
   id="nose0"
   cx="623.70001"
   cy="210.3"
   r="0.80000001" />
	<circle
   id="nose3"
   cx="623.70001"
   cy="228.7"
   r="0.80000001" />
	<circle
   id="rightNose0"
   cx="613"
   cy="233.2"
   r="0.80000001" />
	<circle
   id="rightMouthCorner"
   cx="607"
   cy="255.3"
   r="0.80000001" />
	<circle
   id="rightNose1"
   cx="618.20001"
   cy="233.2"
   r="0.80000001" />
	<circle
   id="rightUpperLipTop0"
   cx="613.90002"
   cy="251.89999"
   r="0.80000001" />
	<circle
   id="nose2"
   cx="623.70001"
   cy="221.60001"
   r="0.80000001" />
	<circle
   id="nose4"
   cx="623.70001"
   cy="234"
   r="0.80000001" />
	<circle
   id="upperLipTopMid"
   cx="624.5"
   cy="251.7"
   r="0.80000001" />
	<circle
   id="rightUpperLipTop1"
   cx="620.40002"
   cy="250.8"
   r="0.80000001" />
	<path
   id="rightMiddleLip"
   d="m 610.6,254.8 c 0.4,0 0.8,0.4 0.8,0.8 0,0.4 -0.4,0.8 -0.8,0.8 -0.4,0 -0.8,-0.4 -0.8,-0.8 0,-0.4 0.4,-0.8 0.8,-0.8 z" />
	<circle
   id="lowerLipBottomMid"
   cx="624.5"
   cy="264.89999"
   r="0.80000001" />
	<circle
   id="upperLipBottomMid"
   cx="624.5"
   cy="255.3"
   r="0.80000001" />
	<circle
   id="lowerLipTopMid"
   cx="624.5"
   cy="258.39999"
   r="0.80000001" />
	<circle
   id="rightUpperLipBottom1"
   cx="620.59998"
   cy="254.8"
   r="0.80000001" />
	<circle
   id="rightLowerLipTop0"
   cx="620.59998"
   cy="257.70001"
   r="0.80000001" />
	<circle
   id="rightLowerLipBottom1"
   cx="620.40002"
   cy="264.39999"
   r="0.80000001" />
	<circle
   id="rightLowerLipBottom0"
   cx="613.40002"
   cy="261.60001"
   r="0.80000001" />
	<circle
   id="rightEye4"
   cx="606.20001"
   cy="216.60001"
   r="0.80000001" />
	<circle
   id="jawMid"
   cx="624.5"
   cy="290.70001"
   r="0.80000001" />
	<circle
   id="rightJaw7"
   cx="609.5"
   cy="287.5"
   r="0.80000001" />
	<circle
   id="rightJaw6"
   cx="599.5"
   cy="280.79999"
   r="0.80000001" />
	<circle
   id="rightJaw5"
   cx="587.90002"
   cy="268.29999"
   r="0.80000001" />
	<circle
   id="rightJaw4"
   cx="581.09998"
   cy="248.3"
   r="0.80000001" />
	<circle
   id="rightJaw3"
   cx="580.29999"
   cy="226.60001"
   r="0.80000001" />
	<circle
   id="rightJaw2"
   cx="580.29999"
   cy="217.10001"
   r="0.80000001" />
	<circle
   id="rightJaw1"
   cx="581.09998"
   cy="205.39999"
   r="0.80000001" />
	<circle
   id="rightJaw0"
   cx="583.59998"
   cy="196.10001"
   r="0.80000001" />
	<circle
   id="topMid"
   cx="624.70001"
   cy="170"
   r="0.80000001" />
	<circle
   id="leftTop0"
   cx="644.40002"
   cy="172.5"
   r="0.80000001" />
	<circle
   id="leftTop1"
   cx="657"
   cy="182"
   r="0.80000001" />
	<circle
   id="leftEye0"
   cx="654.29999"
   cy="215.10001"
   r="0.80000001" />
	<circle
   id="leftBrow1"
   cx="656.20001"
   cy="203.60001"
   r="0.80000001" />
	<circle
   id="leftBrow4"
   cx="632.59998"
   cy="205.7"
   r="0.80000001" />
	<circle
   id="leftBrow3"
   cx="642.59998"
   cy="202.5"
   r="0.80000001" />
	<circle
   id="leftEye1"
   cx="649.09998"
   cy="211.39999"
   r="0.80000001" />
	<circle
   id="leftBrow0"
   cx="660.20001"
   cy="206.5"
   r="0.80000001" />
	<circle
   id="leftBrow2"
   cx="649.90002"
   cy="202.10001"
   r="0.80000001" />
	<circle
   id="leftEye5"
   cx="649.09998"
   cy="217.39999"
   r="0.80000001" />
	<circle
   id="leftEye2"
   cx="642.79999"
   cy="211.39999"
   r="0.80000001" />
	<circle
   id="leftEye3"
   cx="637.59998"
   cy="215.60001"
   r="0.80000001" />
	<circle
   id="leftNose0"
   cx="634.09998"
   cy="233.2"
   r="0.80000001" />
	<circle
   id="leftMouthCorner"
   cx="642"
   cy="255.3"
   r="0.80000001" />
	<circle
   id="leftNose1"
   cx="629.29999"
   cy="233.2"
   r="0.80000001" />
	<circle
   id="leftUpperLipTop0"
   cx="635.09998"
   cy="251.89999"
   r="0.80000001" />
	<circle
   id="leftUpperLipTop1"
   cx="628.70001"
   cy="250.8"
   r="0.80000001" />
	<path
   id="leftMiddleLip"
   d="m 638.4,254.8 c 0.4,0 0.8,0.4 0.8,0.8 0,0.4 -0.4,0.8 -0.8,0.8 -0.4,0 -0.8,-0.4 -0.8,-0.8 0,-0.4 0.4,-0.8 0.8,-0.8 z" />
	<circle
   id="leftUpperLipBottom1"
   cx="628.5"
   cy="254.8"
   r="0.80000001" />
	<circle
   id="leftLowerLipTop0"
   cx="628.5"
   cy="257.70001"
   r="0.80000001" />
	<circle
   id="leftLowerLipBottom1"
   cx="628.70001"
   cy="264.39999"
   r="0.80000001" />
	<circle
   id="leftLowerLipBottom0"
   cx="635.59998"
   cy="261.60001"
   r="0.80000001" />
	<circle
   id="leftEye4"
   cx="642.79999"
   cy="216.60001"
   r="0.80000001" />
	<circle
   id="leftJaw7"
   cx="639.29999"
   cy="287.89999"
   r="0.80000001" />
	<circle
   id="leftJaw6"
   cx="649.29999"
   cy="281.20001"
   r="0.80000001" />
	<circle
   id="leftJaw5"
   cx="660.90002"
   cy="268.60001"
   r="0.80000001" />
	<circle
   id="leftJaw4"
   cx="667.70001"
   cy="248.60001"
   r="0.80000001" />
	<circle
   id="leftJaw3"
   cx="668.5"
   cy="227"
   r="0.80000001" />
	<circle
   id="leftJaw2"
   cx="668.5"
   cy="217.39999"
   r="0.80000001" />
	<circle
   id="leftJaw1"
   cx="667.70001"
   cy="205.7"
   r="0.80000001" />
	<circle
   id="leftJaw0"
   cx="665.20001"
   cy="196.5"
   r="0.80000001" />
	<circle
   id="rightTop0"
   cx="604.79999"
   cy="172.5"
   r="0.80000001" />
	<circle
   id="rightTop1"
   cx="592.20001"
   cy="182"
   r="0.80000001" />
	<circle
   id="leftShoulder"
   cx="731.79999"
   cy="349.20001"
   r="8.1999998" />
</g>
<path
   id="path544"
   style="fill:#ffe6d5;stroke:#ffe6d5;stroke-width:2;stroke-dasharray:none"
   d="m 810.81379,399.67158 -157.68554,1.06836 c -0.16236,0.72641 -0.36983,1.44175 -0.64649,2.14258 -0.6523,1.73501 -1.45762,3.34065 -2.61914,4.79492 -0.0805,0.10075 0.13513,-0.2205 0.20313,-0.33008 -0.85259,1.14575 -1.74992,2.22473 -2.71875,3.27344 -1.38651,1.73716 -2.94454,3.33065 -4.70118,4.70313 -1.7923,1.33451 -3.16978,3.24881 -5.4375,3.90429 -1.49088,0.65203 -2.85235,1.54514 -4.23046,2.40625 -1.47951,0.89817 -2.9564,1.77347 -4.34766,2.81055 -1.89516,1.18059 -3.87357,2.09192 -5.98633,2.80859 -2.30621,0.96395 -4.66473,1.81302 -7.05859,2.53125 -2.30608,0.44531 -4.60618,0.50597 -6.94727,0.38672 -2.82163,-0.0589 -5.64644,-0.13486 -8.45898,-0.38281 -4.01225,-0.38158 -8.02243,-0.90222 -11.89258,-2.07617 -4.78346,-1.55022 -9.3153,-3.63851 -13.07031,-7.06836 -2.85434,-2.76655 -5.65583,-5.57772 -8.30078,-8.54688 -2.35366,-2.65709 -4.6032,-5.41435 -6.76172,-8.23047 -0.64392,-0.84007 -1.177,-1.66922 -1.62891,-2.48437 l -177.15234,1.20117 7.27929,49.49414 h 93.16602 c 0,0 23.29298,109.17968 18.92578,144.11719 -4.36719,34.9375 -106.26953,234.37305 -106.26953,234.37305 0,0 59.68489,-30.56901 100.44531,-7.27735 40.76043,23.29168 62.59766,-10.1914 62.59766,-10.1914 0,0 13.1009,-37.84766 84.43164,5.82421 71.33075,43.6719 98.99023,14.55665 98.99023,14.55665 0,0 52.40625,-42.2168 69.875,-16.01368 17.46876,26.20314 -113.54687,-216.90429 -113.54687,-216.90429 0,0 7.27798,-141.20639 27.6582,-147.0293 20.38021,-5.82291 91.71094,-2.91016 91.71094,-2.91016 z" /><path
   style="fill:#ff0000;stroke:#ffe6d5;stroke-width:1.29473;stroke-dasharray:none"
   d="m 660.4868,688.5414 c 0,0 -20.71099,-15.094 -16.00395,-36.79163 4.70705,-21.69763 17.88676,0 17.88676,0 0,0 13.17973,24.52775 7.53128,36.79163 -5.64846,12.26388 0.9414,-1.88676 0.9414,-1.88676 0,0 0.94142,-38.67837 16.00396,-40.56512 15.06253,-1.88675 -0.94142,49.0555 -9.4141,45.282 -8.47268,-3.7735 16.94536,-41.5085 39.53917,-36.79163 22.59376,4.71686 -23.53521,45.28201 -39.53917,44.33863 -16.00394,-0.94337 17.88677,-11.3205 30.12509,-1.88674 12.23831,9.43374 -22.59382,16.03736 -32.94932,7.54699 -10.35549,-8.49037 37.65636,-3.77349 41.42199,13.20724 3.76564,16.98081 -44.2462,7.54707 -47.07044,-12.26386 -2.82423,-19.81088 13.17973,30.18804 3.76564,34.9049 -9.41408,4.71686 -15.06253,-36.79166 -7.53128,-38.6784 7.53128,-1.88675 7.53128,33.01817 -27.30084,42.45189 -34.83213,9.43373 5.64846,-42.45189 23.53522,-45.28202 17.88676,-2.83012 -30.12507,10.37713 -48.01184,-0.94337 -17.88677,-11.32051 35.77353,-26.4145 47.07043,-9.43375 z"
   id="path8069" /><a
   id="a8188"
   transform="rotate(-141.27956,470.81864,613.97687)"><path
     style="fill:#ff0000;stroke:#ffe6d5;stroke-width:0.407976;stroke-dasharray:none"
     d="m 490.78512,713.4549 c 0,0 6.6561,4.66333 5.14335,11.36686 -1.51275,6.70354 -5.74845,0 -5.74845,0 0,0 -4.2357,-7.5779 -2.4204,-11.36686 1.8153,-3.78895 -0.30255,0.58292 -0.30255,0.58292 0,0 -0.30255,11.94978 -5.14335,12.53269 -4.8408,0.58292 0.30255,-15.15581 3.0255,-13.98998 2.72295,1.16583 -5.4459,12.82415 -12.7071,11.36686 -7.26119,-1.45728 7.56375,-13.98999 12.7071,-13.69853 5.14335,0.29146 -5.74845,3.4975 -9.6816,0.58292 -3.93315,-2.91458 7.2612,-4.95478 10.58925,-2.33166 3.32805,2.62312 -12.102,1.16583 -13.3122,-4.08041 -1.2102,-5.24627 14.21985,-2.33169 15.1275,3.78895 0.90765,6.12062 -4.2357,-9.32667 -1.2102,-10.78396 3.0255,-1.45728 4.8408,11.36688 2.4204,11.94979 -2.4204,0.58291 -2.4204,-10.20105 8.77395,-13.11562 11.19435,-2.91457 -1.8153,13.11562 -7.56375,13.98999 -5.74845,0.87438 9.6816,-3.20604 15.43005,0.29146 5.74845,3.4975 -11.4969,8.16082 -15.1275,2.91458 z"
     id="path8185" /></a></svg>
